<svg width="20" height="20" viewBox="0 0 20 20" fill="none" xmlns="http://www.w3.org/2000/svg">
<path d="M9.99997 0C4.4861 0 0 4.48615 0 9.99997C0 15.5138 4.4861 19.9999 9.99997 19.9999C15.5142 19.9999 19.9999 15.5138 19.9999 9.99997C19.9999 4.48615 15.5142 0 9.99997 0ZM9.99997 18.3523C5.3944 18.3523 1.64769 14.6057 1.64769 10C1.64769 5.39456 5.3944 1.64774 9.99997 1.64774C14.6055 1.64774 18.3521 5.39456 18.3521 10C18.3521 14.6056 14.6055 18.3523 9.99997 18.3523Z" fill="black"/>
<path d="M10.8238 9.67265V4.00948C10.8238 3.55451 10.4549 3.18561 9.99998 3.18561C9.54506 3.18561 9.17621 3.55451 9.17621 4.00948V10C9.17621 10.2558 9.29516 10.4811 9.47771 10.6324C9.48542 10.6417 9.49066 10.6521 9.49869 10.6613L12.5881 14.1692C12.751 14.3537 12.9783 14.4482 13.2067 14.4482C13.3998 14.4482 13.5942 14.3808 13.7506 14.2427C14.0922 13.9418 14.1252 13.4213 13.8246 13.0797L10.8238 9.67265Z" fill="black"/>
</svg>
